<?xml version="1.0" encoding="UTF-8" standalone="no"?><!DOCTYPE svg PUBLIC "-//W3C//DTD SVG 1.1//EN" "http://www.w3.org/Graphics/SVG/1.1/DTD/svg11.dtd"><svg width="100%" height="100%" viewBox="0 0 741 684" version="1.1" xmlns="http://www.w3.org/2000/svg" xmlns:xlink="http://www.w3.org/1999/xlink" xml:space="preserve" xmlns:serif="http://www.serif.com/" style="fill-rule:evenodd;clip-rule:evenodd;stroke-linecap:round;stroke-linejoin:round;stroke-miterlimit:1.5;"><rect id="Graph" x="47.817" y="44.175" width="600" height="600" style="fill:none;stroke:#000;stroke-width:1.5px;"/><g id="X"><g id="X--lines-" serif:id="X (lines)"><path d="M47.817,659.175l0,-15" style="fill:none;stroke:#000;stroke-width:1.5px;"/><path d="M167.817,659.175l0,-15" style="fill:none;stroke:#000;stroke-width:1.5px;"/><path d="M287.817,659.175l0,-15" style="fill:none;stroke:#000;stroke-width:1.5px;"/><path d="M407.817,659.175l0,-15" style="fill:none;stroke:#000;stroke-width:1.5px;"/><path d="M527.817,659.175l0,-15" style="fill:none;stroke:#000;stroke-width:1.5px;"/><path d="M647.817,659.175l0,-15" style="fill:none;stroke:#000;stroke-width:1.5px;"/></g><g id="X--text-" serif:id="X (text)"><text x="43.084px" y="679.779px" style="font-family:'TrebuchetMS', 'Trebuchet MS', sans-serif;font-size:18px;">0</text><text x="157.766px" y="679.779px" style="font-family:'TrebuchetMS', 'Trebuchet MS', sans-serif;font-size:18px;">10</text><text x="278.386px" y="679.779px" style="font-family:'TrebuchetMS', 'Trebuchet MS', sans-serif;font-size:18px;">20</text><text x="398.166px" y="679.779px" style="font-family:'TrebuchetMS', 'Trebuchet MS', sans-serif;font-size:18px;">30</text><text x="518.535px" y="679.779px" style="font-family:'TrebuchetMS', 'Trebuchet MS', sans-serif;font-size:18px;">40</text><text x="638.074px" y="679.779px" style="font-family:'TrebuchetMS', 'Trebuchet MS', sans-serif;font-size:18px;">50</text></g><text x="683.48px" y="679.779px" style="font-family:'TrebuchetMS-Bold', 'Trebuchet MS', sans-serif;font-weight:700;font-size:18px;">Čas (s)</text></g><g id="Y"><g id="Y--lines-" serif:id="Y (lines)"><path d="M47.817,644.175l-15,0" style="fill:none;stroke:#000;stroke-width:1.5px;"/><path d="M47.817,524.175l-15,0" style="fill:none;stroke:#000;stroke-width:1.5px;"/><path d="M47.817,404.175l-15,0" style="fill:none;stroke:#000;stroke-width:1.5px;"/><path d="M47.817,284.175l-15,0" style="fill:none;stroke:#000;stroke-width:1.5px;"/><path d="M47.817,164.679l-15,0" style="fill:none;stroke:#000;stroke-width:1.5px;"/><path d="M47.817,44.175l-15,0" style="fill:none;stroke:#000;stroke-width:1.5px;"/></g><g id="Y--text-" serif:id="Y (text)"><text x="18.36px" y="650.639px" style="font-family:'TrebuchetMS', 'Trebuchet MS', sans-serif;font-size:18px;">0</text><text x="8.921px" y="530.639px" style="font-family:'TrebuchetMS', 'Trebuchet MS', sans-serif;font-size:18px;">60</text><text x="-0.519px" y="410.639px" style="font-family:'TrebuchetMS', 'Trebuchet MS', sans-serif;font-size:18px;">100</text><text x="-0.519px" y="290.639px" style="font-family:'TrebuchetMS', 'Trebuchet MS', sans-serif;font-size:18px;">150</text><text x="-0.519px" y="171.144px" style="font-family:'TrebuchetMS', 'Trebuchet MS', sans-serif;font-size:18px;">200</text><text x="-0.519px" y="50.639px" style="font-family:'TrebuchetMS', 'Trebuchet MS', sans-serif;font-size:18px;">250</text></g><text x="8.095px" y="13.096px" style="font-family:'TrebuchetMS-Bold', 'Trebuchet MS', sans-serif;font-weight:700;font-size:18px;">SF</text></g><g id="Prahy"><path id="SFmax--line-" serif:id="SFmax (line)" d="M47.817,182.649l483.592,0" style="fill:none;stroke:#34ae53;stroke-width:3px;"/><text x="472.922px" y="167.446px" style="font-family:'TrebuchetMS', 'Trebuchet MS', sans-serif;font-size:18px;fill:#34ae53;">SFmax</text><text x="473.59px" y="216.796px" style="font-family:'TrebuchetMS', 'Trebuchet MS', sans-serif;font-size:18px;fill:#d9514e;">Anaerobní práh</text><text x="473.59px" y="329.146px" style="font-family:'TrebuchetMS', 'Trebuchet MS', sans-serif;font-size:18px;fill:#1da5c6;">Aerobní práh</text><path id="Anaerobní-práh--line-" serif:id="Anaerobní práh (line)" d="M47.817,231.988l483.592,0" style="fill:none;stroke:#d9514e;stroke-width:3px;"/><path id="Aerobní-práh--line-" serif:id="Aerobní práh (line)" d="M47.817,344.175l483.592,0" style="fill:none;stroke:#1da5c6;stroke-width:3px;"/></g><path id="Training" d="M47.817,375.54c0.916,-3.743 2.748,-11.227 3.634,-12.544c0.886,-1.318 1.259,5.285 1.681,4.641c0.422,-0.644 0.52,-8.458 0.851,-8.505c0.331,-0.047 0.614,8.43 1.134,8.221c0.52,-0.209 1.394,-9.284 1.984,-9.473c0.591,-0.189 0.78,9.453 1.559,8.339c0.78,-1.114 2.434,-15.024 3.119,-15.024c0.685,0 0.378,13.91 0.992,15.024c0.614,1.114 2.079,-8.41 2.693,-8.339c0.614,0.071 0.52,6.264 0.992,8.764c0.403,2.13 1.418,4.111 1.843,6.237c0.543,2.717 0.803,6.827 1.417,10.064c0.599,3.152 1.748,6.189 2.268,9.355c0.543,3.307 0.591,9.544 0.992,10.489c0.402,0.945 1.111,-5.646 1.418,-4.82c0.307,0.827 -0.142,8.481 0.425,9.781c0.477,1.093 2.68,-3.14 2.977,-1.985c0.472,1.843 -0.804,13.631 -0.142,13.041c0.661,-0.591 3.118,-16.443 4.11,-16.584c0.993,-0.142 1.111,17.387 1.843,15.733c0.732,-1.654 1.465,-27.356 2.551,-25.655c1.087,1.701 2.717,33.64 3.969,35.861c1.252,2.22 2.67,-21.333 3.544,-22.537c0.874,-1.205 0.59,15.379 1.701,15.308c1.11,-0.071 3.212,-16.561 4.961,-15.734c1.748,0.827 4.039,24.285 5.528,20.695c1.488,-3.591 2.315,-40.515 3.401,-42.24c1.087,-1.724 1.748,31.231 3.119,31.892c1.37,0.662 3.401,-27.639 5.102,-27.923c1.701,-0.283 3.449,28.514 5.103,26.223c1.654,-2.292 3.118,-35.814 4.819,-39.972c1.701,-4.158 3.638,14.86 5.387,15.025c1.748,0.165 3.989,-12.239 5.102,-14.033c0.639,-1.029 1.493,4.482 1.577,3.274c0.54,-7.76 0.969,-41.618 1.661,-49.831c0.072,-0.848 2.394,1.398 2.492,0.553c0.553,-4.798 0.138,-25.192 0.83,-29.345c0.304,-1.82 2.585,6.122 3.322,4.43c0.785,-1.8 0.369,-15.134 1.385,-15.227c1.015,-0.092 3.368,15.965 4.706,14.673c1.338,-1.292 2.03,-20.025 3.322,-22.424c1.292,-2.399 3.23,8.536 4.429,8.028c1.2,-0.507 2.077,-11.073 2.769,-11.073c0.692,0 0.646,11.258 1.384,11.073c0.738,-0.184 2.353,-12.781 3.045,-12.181c0.692,0.6 0.323,13.981 1.108,15.78c0.784,1.8 2.814,-5.998 3.598,-4.983c0.785,1.015 0.508,9.597 1.108,11.074c0.418,1.029 2.264,-3.303 2.491,-2.215c0.416,1.984 -0.507,10.704 0,14.119c0.346,2.327 2.328,8.608 3.046,6.367c1.153,-3.599 2.999,-24.039 3.875,-27.961c0.338,-1.509 0.692,5.491 1.385,4.43c0.692,-1.062 2.122,-11.258 2.768,-10.797c0.646,0.461 0.369,12.135 1.107,13.565c0.739,1.43 2.746,-6.894 3.322,-4.983c1.016,3.368 1.754,22.193 2.769,25.192c0.847,2.503 2.584,-8.72 3.322,-7.197c0.738,1.522 0.415,17.487 1.107,16.333c0.692,-1.153 2.261,-21.132 3.046,-23.254c0.784,-2.123 0.876,9.874 1.661,10.52c0.784,0.645 2.353,-7.844 3.045,-6.645c0.692,1.2 0,18.041 1.107,13.842c1.108,-4.198 4.107,-32.851 5.537,-39.034c0.271,-1.172 2.822,3.12 3.045,1.938c0.785,-4.153 0.877,-23.532 1.661,-26.854c0.579,-2.453 1.292,7.752 3.045,6.921c1.754,-0.83 5.939,-16.33 7.475,-11.904c1.569,4.522 0.923,34.836 1.938,39.035c1.015,4.198 3.23,-13.012 4.153,-13.842c0.922,-0.831 0.323,9.228 1.384,8.859c1.061,-0.37 4.106,-11.213 4.983,-11.074c0.877,0.138 -0.508,12.412 0.277,11.904c0.784,-0.508 3.322,-15.226 4.429,-14.949c1.108,0.277 1.338,14.257 2.215,16.61c0.458,1.229 2.773,-3.774 3.045,-2.491c0.646,3.045 -0.277,23.669 0.831,20.763c1.107,-2.907 4.383,-32.483 5.813,-38.204c0.385,-1.541 1.85,5.17 2.769,3.875c1.015,-1.43 2.307,-11.95 3.322,-12.457c1.015,-0.508 1.938,8.443 2.768,9.412c0.831,0.969 2.014,-4.993 2.215,-3.599c0.784,5.445 1.569,30.776 2.492,36.266c0.249,1.482 2.57,-4.747 3.045,-3.322c0.692,2.076 0.323,17.626 1.107,15.78c0.785,-1.846 2.446,-24.685 3.599,-26.853c1.154,-2.169 2.123,16.287 3.322,13.842c1.2,-2.446 2.799,-24.593 3.876,-28.515c0.495,-1.805 1.224,6.267 2.586,4.983c1.615,-1.522 5.55,-15.78 7.103,-14.119c1.553,1.661 0.923,22.009 2.215,24.085c1.292,2.077 4.166,-12.273 5.537,-11.627c1.371,0.646 1.398,15.134 2.69,15.503c1.292,0.369 3.618,-16.933 5.061,-13.288c1.444,3.645 2.215,29.899 3.599,35.159c0.503,1.909 3.415,-4.43 4.707,-3.599c1.292,0.83 2.122,9.504 3.045,8.582c0.923,-0.923 1.661,-13.473 2.491,-14.119c0.831,-0.646 1.385,9.689 2.492,10.243c1.107,0.554 3.368,-7.982 4.153,-6.921c0.784,1.061 0.092,11.396 0.553,13.288c0.233,0.953 1.977,-2.889 2.215,-1.938c0.877,3.507 2.122,19.61 3.045,22.978c0.328,1.197 1.981,-3.9 2.492,-2.768c0.646,1.43 0.25,11.812 1.384,11.35c1.134,-0.461 4.13,-14.58 5.422,-14.119c1.292,0.462 1.48,20.256 2.329,16.888c0.85,-3.369 1.221,-34.79 2.769,-37.097c1.548,-2.307 5.042,19.794 6.518,23.255c0.448,1.048 2.112,-3.608 2.341,-2.492c0.482,2.353 -0.369,12.458 0.553,16.61c0.701,3.152 3.557,11.202 4.984,8.306c1.568,-3.184 3.045,-23.255 4.429,-27.408c0.486,-1.457 2.983,3.742 3.876,2.492c1.153,-1.615 2.261,-12.181 3.045,-12.181c0.784,0 0.877,10.566 1.661,12.181c0.573,1.18 2.804,-3.781 3.045,-2.492c1.062,5.676 1.892,33.775 3.322,36.543c1.431,2.769 4.015,-17.025 5.26,-19.932c0.438,-1.022 2.054,3.591 2.215,2.491c0.877,-5.998 1.707,-35.297 3.045,-38.48c1.338,-3.184 3.599,16.61 4.983,19.378c0.645,1.29 3.077,-4.188 3.323,-2.768c0.692,4.006 -0.093,22.975 0.83,26.804c0.474,1.966 4.019,-5.728 4.706,-3.826c1.154,3.192 0.831,23.024 2.215,22.977c1.384,-0.046 4.706,-20.716 6.091,-23.254c1.329,-2.437 1.153,9.629 2.214,8.028c1.061,-1.6 3.23,-18.368 4.153,-17.63c0.923,0.738 0.369,19.775 1.384,22.06c1.015,2.284 3.901,-11.448 4.706,-8.355c1.154,4.43 0.877,30.678 2.215,34.931c1.107,3.518 4.568,-9.643 5.814,-9.412c1.245,0.23 0.67,9.584 1.661,10.797c0.99,1.212 3.247,-5.056 4.28,-3.524c1.564,2.318 3.52,15.497 5.103,17.434c1.537,1.881 3.316,-7.988 4.394,-5.811c1.732,3.497 4.574,19.029 5.996,26.795" style="fill:none;stroke:#999;stroke-width:0.75px;"/><g id="Training-Progress" serif:id="Training Progress"><path d="M75.547,436.212l0,100.571" style="fill:none;stroke:#000;stroke-width:0.75px;"/><path d="M136.647,406.474l0,130.309" style="fill:none;stroke:#000;stroke-width:0.75px;"/><path d="M339.411,368.084l0,168.699" style="fill:none;stroke:#000;stroke-width:0.75px;"/><path d="M435.656,421.073l0,115.71" style="fill:none;stroke:#000;stroke-width:0.75px;"/><rect x="144.183" y="452.433" width="187.8" height="84.35" style="fill:#1da5c6;"/><rect x="346.908" y="452.433" width="81.225" height="84.35" style="fill:#dde29d;"/><rect x="83.058" y="452.433" width="46.125" height="84.35" style="fill:#dde29d;"/><rect x="55.308" y="452.433" width="12.75" height="84.35" style="fill:#fcef9a;"/><g transform="matrix(0.75,0,0,0.75,-382.847,-51.7041)"><text x="734.247px" y="721.319px" style="font-family:'TrebuchetMS', 'Trebuchet MS', sans-serif;font-size:16px;">T<tspan x="741.778px 747.997px " y="721.319px 721.319px ">ré</tspan>nink v aerobním pásmu</text><text x="743.806px" y="745.319px" style="font-family:'TrebuchetMS', 'Trebuchet MS', sans-serif;font-size:16px;">55–65 %; 65–75 % SFmax</text></g><g transform="matrix(0.75,0,0,0.75,-233.893,-51.8799)"><text x="795.4px" y="721.319px" style="font-family:'TrebuchetMS', 'Trebuchet MS', sans-serif;font-size:16px;">Zklidnění</text><text x="788.4px" y="745.319px" style="font-family:'TrebuchetMS', 'Trebuchet MS', sans-serif;font-size:16px;">(protažení)</text></g><g transform="matrix(6.12323e-17,-1,1,6.12323e-17,-1546.36,686.017)"><text x="162.9px" y="1657.18px" style="font-family:'TrebuchetMS', 'Trebuchet MS', sans-serif;font-size:12px;">R<tspan x="169.398px 175.838px " y="1657.18px 1657.18px ">oz</tspan>cvičení</text></g><g transform="matrix(6.12323e-17,-1,1,6.12323e-17,-1590.62,641.404)"><text x="127.325px" y="1657px" style="font-family:'TrebuchetMS', 'Trebuchet MS', sans-serif;font-size:12px;">Zahřátí</text></g></g></svg>